# xmcd CD database file
#
# Track frame offsets:
#	150
#	14330
#	30350
#	51902
#	72522
#	88887
#	103752
#	130860
#	149332
#	166510
#	193092
#	222482
#
# Disc length: 3237 seconds
#
# Revision: 1
# Processed by: cddbd v1.5.2PL0 Copyright (c) Steve Scherf et al.
# Submitted via: CDex 1.70beta3
#
DISCID=ac0ca30c
DTITLE=JUDE - ELECTRIC RAINBOW
DYEAR=2005
DGENRE=J-Rock
TTITLE0=毒りんご売り
TTITLE1=ブラックレストラン
TTITLE2=ROCK SHOW
TTITLE3=冷麺
TTITLE4=Bad Girl
TTITLE5=Brown Bunny
TTITLE6=僕の恋人
TTITLE7=Silk
TTITLE8=ロシアビリー
TTITLE9=Sea Sea Honey
TTITLE10=本当の世界
TTITLE11=blue moon flower
EXTD=YEAR: 2005
EXTT0=
EXTT1=
EXTT2=
EXTT3=
EXTT4=
EXTT5=
EXTT6=
EXTT7=
EXTT8=
EXTT9=
EXTT10=
EXTT11=
PLAYORDER=
